<svg width="49" height="49" viewBox="0 0 49 49" fill="none" xmlns="http://www.w3.org/2000/svg">
<path d="M24.6669 28.8887C29.0789 28.8887 32.6669 25.3007 32.6669 20.8887C32.6669 16.4767 29.0789 12.8887 24.6669 12.8887C20.2549 12.8887 16.6669 16.4767 16.6669 20.8887C16.6669 25.3007 20.2549 28.8887 24.6669 28.8887ZM24.6669 16.8887C26.8729 16.8887 28.6669 18.6827 28.6669 20.8887C28.6669 23.0947 26.8729 24.8887 24.6669 24.8887C22.4609 24.8887 20.6669 23.0947 20.6669 20.8887C20.6669 18.6827 22.4609 16.8887 24.6669 16.8887Z" fill="black"/>
<path d="M23.5069 44.5167C23.8454 44.7584 24.251 44.8884 24.6669 44.8884C25.0829 44.8884 25.4884 44.7584 25.8269 44.5167C26.4349 44.0867 40.7249 33.7687 40.6669 20.8887C40.6669 12.0667 33.4889 4.88867 24.6669 4.88867C15.8449 4.88867 8.66692 12.0667 8.66692 20.8787C8.60892 33.7687 22.8989 44.0867 23.5069 44.5167ZM24.6669 8.88867C31.2849 8.88867 36.6669 14.2707 36.6669 20.8987C36.7089 29.7747 27.8909 37.7447 24.6669 40.3587C21.4449 37.7427 12.6249 29.7707 12.6669 20.8887C12.6669 14.2707 18.0489 8.88867 24.6669 8.88867Z" fill="black"/>
</svg>
