<svg width="32" height="33" viewBox="0 0 32 33" fill="none" xmlns="http://www.w3.org/2000/svg">
<path d="M23.8233 21.0654L23.8232 21.0654L23.4697 21.419C23.4697 21.419 23.4697 21.419 23.4697 21.419C23.3721 21.5166 23.2138 21.5166 23.1162 21.419C23.1162 21.419 23.1162 21.419 23.1161 21.419L16.3536 14.6564L16 14.3028L15.6465 14.6564L8.88388 21.419C8.78625 21.5166 8.62803 21.5166 8.53039 21.419L8.17679 21.0654C8.07915 20.9677 8.07915 20.8095 8.17679 20.7119L15.8233 13.0654C15.9209 12.9677 16.0791 12.9677 16.1768 13.0654L23.8233 20.7119C23.8233 20.7119 23.8233 20.7119 23.8233 20.7119C23.9209 20.8095 23.9209 20.9677 23.8233 21.0654Z" fill="white" stroke="white"/>
</svg>
