<svg width="48" height="49" viewBox="0 0 48 49" fill="none" xmlns="http://www.w3.org/2000/svg">
<path d="M40 8.88867H8C5.794 8.88867 4 10.6827 4 12.8887V36.8887C4 39.0947 5.794 40.8887 8 40.8887H40C42.206 40.8887 44 39.0947 44 36.8887V12.8887C44 10.6827 42.206 8.88867 40 8.88867ZM40 12.8887V13.9107L24 26.3567L8 13.9127V12.8887H40ZM8 36.8887V18.9767L22.772 30.4667C23.1222 30.7418 23.5547 30.8913 24 30.8913C24.4453 30.8913 24.8778 30.7418 25.228 30.4667L40 18.9767L40.004 36.8887H8Z" fill="black"/>
</svg>
