<svg width="49" height="49" viewBox="0 0 49 49" fill="none" xmlns="http://www.w3.org/2000/svg">
<path fill-rule="evenodd" clip-rule="evenodd" d="M42.1267 15.1287L41.8467 14.6287C41.4855 14.0241 40.9761 13.5215 40.3667 13.1687L26.9467 5.42867C26.3391 5.07617 25.6493 4.88991 24.9467 4.88867H24.3667C23.6641 4.88991 22.9743 5.07617 22.3667 5.42867L8.94669 13.1887C8.34063 13.5392 7.83721 14.0426 7.48669 14.6487L7.20669 15.1487C6.85419 15.7564 6.66793 16.4462 6.66669 17.1487V32.6487C6.66793 33.3513 6.85419 34.0411 7.20669 34.6487L7.48669 35.1487C7.84627 35.7477 8.34767 36.2491 8.94669 36.6087L22.3867 44.3487C22.9913 44.7085 23.6831 44.8953 24.3867 44.8887H24.9467C25.6493 44.8875 26.3391 44.7013 26.9467 44.3487L40.3667 36.5887C40.9787 36.2461 41.4841 35.7407 41.8267 35.1287L42.1267 34.6287C42.4749 34.0193 42.6609 33.3307 42.6667 32.6287V17.1287C42.6655 16.4261 42.4793 15.7363 42.1267 15.1287ZM24.3667 8.88867H24.9467L36.6667 15.6487L24.6667 22.5687L12.6667 15.6487L24.3667 8.88867ZM26.6667 39.8887L38.3667 33.1287L38.6667 32.6287V19.1087L26.6667 26.0487V39.8887Z" fill="white"/>
</svg>
